<?xml version="1.0" encoding="UTF-8" standalone="no"?>
<!-- Created with Inkscape (http://www.inkscape.org/) -->
<svg
   xmlns:svg="http://www.w3.org/2000/svg"
   xmlns="http://www.w3.org/2000/svg"
   version="1.0"
   width="425"
   height="425"
   id="svg2">
  <defs
     id="defs5" />
  <g
     transform="translate(16.90981,-18.03714)"
     id="g5511">
    <path
       d="M 394.05574,290.66 C 394.05574,329.58496 362.50082,361.13986 323.57586,361.13986 C 284.6509,361.13986 253.096,329.58496 253.096,290.66 C 253.096,251.73504 284.6509,220.18012 323.57586,220.18012 C 362.50082,220.18012 394.05574,251.73504 394.05574,290.66 z "
       style="opacity:1;color:black;fill:#e6e6e6;fill-opacity:1;fill-rule:evenodd;stroke:black;stroke-width:3.76511765;stroke-linecap:round;stroke-linejoin:round;marker:none;marker-start:none;marker-mid:none;marker-end:none;stroke-miterlimit:4;stroke-dasharray:none;stroke-dashoffset:0;stroke-opacity:1;visibility:visible;display:inline;overflow:visible"
       id="path6609" />
    <text
       x="323.10956"
       y="316.21582"
       style="font-size:72px;font-style:normal;font-variant:normal;font-weight:normal;font-stretch:normal;text-align:center;line-height:100%;writing-mode:lr-tb;text-anchor:middle;opacity:1;color:black;fill:black;fill-opacity:1;fill-rule:evenodd;stroke:none;stroke-width:5;stroke-linecap:round;stroke-linejoin:round;marker:none;marker-start:none;marker-mid:none;marker-end:none;stroke-miterlimit:4;stroke-dasharray:none;stroke-dashoffset:0;stroke-opacity:1;visibility:visible;display:inline;overflow:visible;font-family:Times New Roman"
       id="text7496"
       xml:space="preserve"><tspan
         x="323.10956"
         y="316.21582"
         id="tspan7498">1</tspan></text>
  </g>
  <g
     transform="translate(16.90981,-18.03714)"
     id="g5516">
    <path
       d="M 106.67979,89.265713 C 124.55439,77.760286 147.9734,77.180172 175.9374,76.096793 C 193.55888,75.414102 203.1258,78.142539 216.34312,87.568265 C 223.96648,93.004743 236.76539,98.088153 244.49695,101.98401 C 249.36538,104.43717 248.0438,108.35189 253.49819,110.71912 C 260.06073,114.02307 259.58274,120.27369 264.70601,123.99418 C 270.00838,127.84474 283.45012,151.14615 283.74467,159.58151 C 284.02476,167.60256 290.64381,177.0572 284.14281,190.09884 C 281.68887,195.02166 276.66435,201.5006 272.08735,204.93657 C 266.63833,209.02716 263.66876,213.04297 258.72947,217.19756 C 252.93334,222.07287 244.98032,229.23879 236.78953,230.98883 C 231.3961,232.14119 220.18712,235.70857 209.3948,237.40974 C 205.82763,237.97203 198.21945,239.45775 198.77307,235.37114 C 198.24755,239.59849 190.64193,238.00762 187.92371,237.45212 C 177.22637,235.26597 178.93239,229.47312 158.0593,225.53728 C 153.67354,238.15994 154.61165,236.58481 154.1954,245.37081 C 153.10457,268.53651 155.53519,264.83882 155.33651,272.3727 C 155.18901,277.96605 150.0565,284.624 143.82351,291.98682 C 136.45698,300.68864 137.40392,306.01433 124.29956,305.51845 C 112.50521,305.07215 116.25457,309.84257 106.01522,309.66835 C 89.872805,309.39129 69.363126,320.64844 53.986837,320.17261 C 44.396267,319.87582 39.495189,319.17792 36.071209,313.27047 C 30.779,304.13974 30.451405,311.52013 22.926873,294.97173 C 22.43642,293.95838 23.006638,287.6508 22.386771,287.63523 C 20.624543,287.59096 19.410233,282.54617 19.50227,278.46093 C 19.595791,274.20899 15.488165,279.99846 16.700263,264.19136 C 16.894252,261.66152 16.462139,259.79411 19.926092,250.95839 C 26.223645,234.89483 29.687154,229.41753 34.275622,223.03638 C 43.178802,210.65478 46.099934,198.54856 45.942867,193.76778 C 45.785006,188.96283 65.860858,185.3151 64.39238,163.23166 C 63.139757,144.39431 50.849791,141.75459 62.439225,130.80932 C 77.293238,116.78094 87.501493,101.61029 106.67979,89.265713 z "
       style="opacity:1;color:black;fill:white;fill-opacity:1;fill-rule:evenodd;stroke:black;stroke-width:2.70780969;stroke-linecap:round;stroke-linejoin:round;marker:none;marker-start:none;marker-mid:none;marker-end:none;stroke-miterlimit:4;stroke-dasharray:none;stroke-dashoffset:0;stroke-opacity:1;visibility:visible;display:inline;overflow:visible"
       id="path2830" />
    <path
       d="M 95.483308,202.95515 C 93.241061,207.33567 92.967135,225.84784 95.466218,229.96616 C 98.323901,234.67543 96.005229,241.77492 96.740292,244.15389 C 98.277154,249.12783 93.378652,252.41084 94.857308,256.1764 C 96.853675,261.26037 87.424117,278.534 74.363641,278.7301"
       style="opacity:1;color:black;fill:none;fill-opacity:1;fill-rule:evenodd;stroke:black;stroke-width:2.83168197;stroke-linecap:round;stroke-linejoin:round;marker:none;marker-start:none;marker-mid:none;marker-end:none;stroke-miterlimit:4;stroke-dasharray:none;stroke-dashoffset:0;stroke-opacity:1;visibility:visible;display:inline;overflow:visible"
       id="path3889" />
    <path
       d="M 68.860733,141.49476 C 74.560934,146.26021 77.601738,151.23955 79.461558,155.15066 C 81.412226,159.25281 81.972804,170.94371 80.053416,174.25512 C 74.544493,183.75938 64.788507,192.57747 69.596321,185.80745 C 80.78097,176.54525 67.222516,174.6665 72.345366,169.50657 C 79.639046,162.16009 70.111356,158.09027 72.185926,154.65862 C 74.439537,150.93082 70.600704,142.1884 68.860733,141.49476 z "
       style="opacity:1;color:black;fill:black;fill-opacity:1;fill-rule:evenodd;stroke:black;stroke-width:2.83168197;stroke-linecap:round;stroke-linejoin:round;marker:none;marker-start:none;marker-mid:none;marker-end:none;stroke-miterlimit:4;stroke-dasharray:none;stroke-dashoffset:0;stroke-opacity:1;visibility:visible;display:inline;overflow:visible"
       id="path3891" />
    <path
       d="M 90.371788,249.28259 C 74.724331,248.08851 82.109921,251.68946 78.345481,251.60053 C 75.40624,251.53109 74.855714,259.40327 83.924878,258.89646 C 88.579248,258.6322 89.078148,258.50653 92.128088,254.70102 C 93.661328,252.78795 92.720148,249.46346 90.371788,249.28259 z "
       style="opacity:1;color:black;fill:none;fill-opacity:1;fill-rule:evenodd;stroke:black;stroke-width:2.83168197;stroke-linecap:round;stroke-linejoin:round;marker:none;marker-start:none;marker-mid:none;marker-end:none;stroke-miterlimit:4;stroke-dasharray:none;stroke-dashoffset:0;stroke-opacity:1;visibility:visible;display:inline;overflow:visible"
       id="path3900" />
    <path
       d="M 76.572755,254.5954 C 72.938415,249.12724 67.127792,249.57217 65.971918,253.15579 C 64.345595,258.19797 68.918097,257.82153 68.900366,262.47222 C 68.884801,266.55496 74.640664,263.99242 76.260469,261.48207 C 77.577404,259.44112 77.788182,256.42411 76.572755,254.5954 z "
       style="opacity:1;color:black;fill:none;fill-opacity:1;fill-rule:evenodd;stroke:black;stroke-width:2.83168197;stroke-linecap:round;stroke-linejoin:round;marker:none;marker-start:none;marker-mid:none;marker-end:none;stroke-miterlimit:4;stroke-dasharray:none;stroke-dashoffset:0;stroke-opacity:1;visibility:visible;display:inline;overflow:visible"
       id="path4795" />
    <path
       d="M 66.308387,252.1694 C 61.361128,252.69946 61.038252,254.27606 59.19368,253.81743 C 55.890335,252.99609 57.216658,265.82371 60.36199,263.4079 C 65.710785,259.2997 66.263018,267.88978 68.779585,264.35347 C 71.028011,261.19396 63.253234,255.81334 66.308387,252.1694 z "
       style="opacity:1;color:black;fill:none;fill-opacity:1;fill-rule:evenodd;stroke:black;stroke-width:2.83168197;stroke-linecap:round;stroke-linejoin:round;marker:none;marker-start:none;marker-mid:none;marker-end:none;stroke-miterlimit:4;stroke-dasharray:none;stroke-dashoffset:0;stroke-opacity:1;visibility:visible;display:inline;overflow:visible"
       id="path4797" />
    <path
       d="M 56.199653,253.37716 C 48.703958,252.05357 53.246922,253.22664 50.358857,253.02847 C 48.313544,252.88813 49.614356,263.74886 52.765594,262.36673 C 57.877036,260.12484 55.949834,262.64617 56.854573,260.91293 C 57.97013,258.77582 58.512929,253.78565 56.199653,253.37716 z "
       style="opacity:1;color:black;fill:none;fill-opacity:1;fill-rule:evenodd;stroke:black;stroke-width:2.83168197;stroke-linecap:round;stroke-linejoin:round;marker:none;marker-start:none;marker-mid:none;marker-end:none;stroke-miterlimit:4;stroke-dasharray:none;stroke-dashoffset:0;stroke-opacity:1;visibility:visible;display:inline;overflow:visible"
       id="path4799" />
    <path
       d="M 49.25374,256.61805 C 45.6194,251.14989 44.221404,254.53745 42.337191,254.23918 C 39.581633,253.80297 38.739024,263.37334 44.150055,263.19094 C 48.952292,263.02907 47.120618,264.48065 49.441401,262.47159 C 50.901349,261.20774 50.469167,258.44676 49.25374,256.61805 z "
       style="opacity:1;color:black;fill:none;fill-opacity:1;fill-rule:evenodd;stroke:black;stroke-width:2.83168197;stroke-linecap:round;stroke-linejoin:round;marker:none;marker-start:none;marker-mid:none;marker-end:none;stroke-miterlimit:4;stroke-dasharray:none;stroke-dashoffset:0;stroke-opacity:1;visibility:visible;display:inline;overflow:visible"
       id="path4801" />
    <path
       d="M 92.534318,260.72142 C 89.126488,257.13808 85.291528,261.4616 81.366105,261.22612 C 77.440032,260.9906 77.086873,266.65572 79.508805,268.1335 C 85.256188,271.64033 86.504388,268.43814 89.714208,268.60068 C 92.592658,268.74644 93.745568,261.99505 92.534318,260.72142 z "
       style="opacity:1;color:black;fill:none;fill-opacity:1;fill-rule:evenodd;stroke:black;stroke-width:2.83168197;stroke-linecap:round;stroke-linejoin:round;marker:none;marker-start:none;marker-mid:none;marker-end:none;stroke-miterlimit:4;stroke-dasharray:none;stroke-dashoffset:0;stroke-opacity:1;visibility:visible;display:inline;overflow:visible"
       id="path4805" />
    <path
       d="M 76.572555,264.56578 C 73.796294,261.04039 75.006971,264.31035 68.497827,265.0673 C 67.154676,265.22349 65.537206,270.52388 67.853499,272.07428 C 73.927121,270.15272 71.738733,273.75349 75.789762,272.14977 C 78.181435,271.20296 77.741759,267.29997 76.572555,264.56578 z "
       style="opacity:1;color:black;fill:none;fill-opacity:1;fill-rule:evenodd;stroke:black;stroke-width:2.83168197;stroke-linecap:round;stroke-linejoin:round;marker:none;marker-start:none;marker-mid:none;marker-end:none;stroke-miterlimit:4;stroke-dasharray:none;stroke-dashoffset:0;stroke-opacity:1;visibility:visible;display:inline;overflow:visible"
       id="path4807" />
    <path
       d="M 66.990727,264.96432 C 67.113362,262.87566 63.04711,261.49147 59.681632,263.586 C 58.449113,264.35307 57.667514,267.50269 58.420995,271.29959 C 60.805377,273.07622 64.463285,273.17145 66.146993,271.72613 C 68.082931,270.14056 66.84509,267.44473 66.990727,264.96432 z "
       style="opacity:1;color:black;fill:none;fill-opacity:1;fill-rule:evenodd;stroke:black;stroke-width:2.83168197;stroke-linecap:round;stroke-linejoin:round;marker:none;marker-start:none;marker-mid:none;marker-end:none;stroke-miterlimit:4;stroke-dasharray:none;stroke-dashoffset:0;stroke-opacity:1;visibility:visible;display:inline;overflow:visible"
       id="path4809" />
    <path
       d="M 58.880029,265.52655 C 55.245689,260.05839 53.671407,265.54748 49.528784,264.76841 C 46.34518,264.16969 47.04375,270.74915 48.141919,272.13804 C 50.25074,274.80514 51.844312,272.01188 54.199606,271.93069 C 55.514028,271.88538 55.474032,274.66763 57.919081,272.75822 C 59.652397,270.99079 60.095455,267.35526 58.880029,265.52655 z "
       style="opacity:1;color:black;fill:none;fill-opacity:1;fill-rule:evenodd;stroke:black;stroke-width:2.83168197;stroke-linecap:round;stroke-linejoin:round;marker:none;marker-start:none;marker-mid:none;marker-end:none;stroke-miterlimit:4;stroke-dasharray:none;stroke-dashoffset:0;stroke-opacity:1;visibility:visible;display:inline;overflow:visible"
       id="path4811" />
    <path
       d="M 36.72449,264.66015 C 30.291366,259.48491 28.716748,264.04984 29.806458,265.50301 C 31.788848,268.1466 30.143068,272.42613 32.75729,273.71318 C 37.561562,273.81401 37.050137,274.32247 37.729455,272.41132 C 38.584766,270.00505 37.592614,265.39758 36.72449,264.66015 z "
       style="opacity:1;color:black;fill:none;fill-opacity:1;fill-rule:evenodd;stroke:black;stroke-width:2.83168197;stroke-linecap:round;stroke-linejoin:round;marker:none;marker-start:none;marker-mid:none;marker-end:none;stroke-miterlimit:4;stroke-dasharray:none;stroke-dashoffset:0;stroke-opacity:1;visibility:visible;display:inline;overflow:visible"
       id="path4813" />
    <path
       d="M 30.089838,265.54085 C 27.011123,262.26428 23.244626,262.69833 24.177231,265.9981 C 24.766429,268.08281 23.154729,274.57939 27.363224,274.67073 C 32.167496,274.77157 32.216288,273.61185 31.401732,271.74455 C 30.020769,268.57881 31.157245,266.67686 30.089838,265.54085 z "
       style="opacity:1;color:black;fill:none;fill-opacity:1;fill-rule:evenodd;stroke:black;stroke-width:2.83168197;stroke-linecap:round;stroke-linejoin:round;marker:none;marker-start:none;marker-mid:none;marker-end:none;stroke-miterlimit:4;stroke-dasharray:none;stroke-dashoffset:0;stroke-opacity:1;visibility:visible;display:inline;overflow:visible"
       id="path4815" />
    <path
       d="M 35.316652,254.9569 C 32.237937,251.68033 30.294981,250.34858 31.227586,253.64835 C 31.816784,255.73306 29.237672,262.40715 33.446167,262.49849 C 38.250439,262.59933 34.963504,262.54552 35.642822,260.63436 C 36.498132,258.22809 36.384059,256.09291 35.316652,254.9569 z "
       style="opacity:1;color:black;fill:none;fill-opacity:1;fill-rule:evenodd;stroke:black;stroke-width:2.83168197;stroke-linecap:round;stroke-linejoin:round;marker:none;marker-start:none;marker-mid:none;marker-end:none;stroke-miterlimit:4;stroke-dasharray:none;stroke-dashoffset:0;stroke-opacity:1;visibility:visible;display:inline;overflow:visible"
       id="path4817" />
    <path
       d="M 40.232347,255.08534 C 37.153632,251.80877 34.037466,252.63371 35.843014,255.54888 C 37.627916,258.43072 33.873833,263.92794 38.082328,264.01929 C 42.8866,264.12012 40.018966,262.16764 40.698284,260.25649 C 41.553594,257.85022 41.299754,256.22135 40.232347,255.08534 z "
       style="opacity:1;color:black;fill:none;fill-opacity:1;fill-rule:evenodd;stroke:black;stroke-width:2.83168197;stroke-linecap:round;stroke-linejoin:round;marker:none;marker-start:none;marker-mid:none;marker-end:none;stroke-miterlimit:4;stroke-dasharray:none;stroke-dashoffset:0;stroke-opacity:1;visibility:visible;display:inline;overflow:visible"
       id="path1992" />
    <path
       d="M 47.365644,265.43681 C 43.731304,259.96866 40.901894,264.36327 39.009957,264.10823 C 37.65207,263.92518 37.282915,266.28629 38.035527,271.84809 C 38.679194,276.60479 45.909852,274.60179 48.609242,273.14042 C 49.471338,272.6737 45.990378,271.05193 47.365644,265.43681 z "
       style="opacity:1;color:black;fill:none;fill-opacity:1;fill-rule:evenodd;stroke:black;stroke-width:2.83168197;stroke-linecap:round;stroke-linejoin:round;marker:none;marker-start:none;marker-mid:none;marker-end:none;stroke-miterlimit:4;stroke-dasharray:none;stroke-dashoffset:0;stroke-opacity:1;visibility:visible;display:inline;overflow:visible"
       id="path1994" />
    <path
       d="M 112.30935,121.89158 C 103.5974,126.57516 88.397724,130.56072 87.64313,142.48055 C 87.201801,149.45195 89.558228,145.36179 89.663482,154.95187 C 89.688352,157.21784 99.285071,164.03481 99.170513,168.98171 C 99.065058,173.53552 93.152771,177.30146 93.030919,182.61856 C 92.831039,191.19965 104.50422,187.75922 108.86709,187.03509 C 116.50157,186.40372 120.33273,185.17111 127.95042,187.95742 C 134.92532,190.50863 147.31141,187.48045 154.37332,191.45919 C 167.21197,198.69261 171.46407,197.84422 182.28026,193.33993 C 185.784,192.25965 189.28431,191.1076 192.9128,190.51724"
       style="opacity:1;color:black;fill:none;fill-opacity:1;fill-rule:evenodd;stroke:black;stroke-width:3;stroke-linecap:round;stroke-linejoin:round;marker:none;marker-start:none;marker-mid:none;marker-end:none;stroke-miterlimit:4;stroke-dasharray:none;stroke-dashoffset:0;stroke-opacity:1;visibility:visible;display:inline;overflow:visible"
       id="path2077" />
    <path
       d="M 30.689746,252.61926 C 29.906107,251.77109 28.438033,251.60976 27.325488,251.91933 C 24.671201,254.76065 22.912162,258.31954 23.709209,262.12516 C 24.5496,263.84167 30.213504,264.90441 31.301188,262.1083 C 30.212379,258.72951 31.968161,255.68017 30.689746,252.61926 z "
       style="opacity:1;color:black;fill:none;fill-opacity:1;fill-rule:evenodd;stroke:black;stroke-width:3;stroke-linecap:round;stroke-linejoin:round;marker:none;marker-start:none;marker-mid:none;marker-end:none;stroke-miterlimit:4;stroke-dasharray:none;stroke-dashoffset:0;stroke-opacity:1;visibility:visible;display:inline;overflow:visible"
       id="path2096" />
    <path
       d="M 22.390829,268.11521 C 22.622467,265.59558 21.632782,262.94494 19.10301,262.88775 C 18.086605,262.44757 16.865329,263.56589 17.170206,264.61768 C 15.946508,267.4752 17.152953,270.73144 17.14833,273.78832 C 19.640582,276.19315 22.897392,271.76808 22.390829,268.11521 z "
       style="opacity:1;color:black;fill:none;fill-opacity:1;fill-rule:evenodd;stroke:black;stroke-width:3;stroke-linecap:round;stroke-linejoin:round;marker:none;marker-start:none;marker-mid:none;marker-end:none;stroke-miterlimit:4;stroke-dasharray:none;stroke-dashoffset:0;stroke-opacity:1;visibility:visible;display:inline;overflow:visible"
       id="path3407" />
    <path
       d="M 25.508361,252.41999 C 24.679392,249.19175 21.419318,249.28047 19.608554,252.4022 C 18.384572,254.7265 17.406327,257.77649 17.504678,260.39903 C 19.860942,262.8862 20.160793,262.33058 22.45287,260.47702 C 23.133325,257.5301 25.661799,255.22183 25.508361,252.41999 z "
       style="opacity:1;color:black;fill:none;fill-opacity:1;fill-rule:evenodd;stroke:black;stroke-width:3;stroke-linecap:round;stroke-linejoin:round;marker:none;marker-start:none;marker-mid:none;marker-end:none;stroke-miterlimit:4;stroke-dasharray:none;stroke-dashoffset:0;stroke-opacity:1;visibility:visible;display:inline;overflow:visible"
       id="path3409" />
    <path
       d="M 80.112198,211.76604 C 83.532054,209.07933 90.098663,204.49163 93.969414,202.6533 C 100.68958,199.4617 105.32798,198.29037 113.12766,198.71276 C 118.0545,199.05513 120.56188,204.22352 123.70654,207.18443 C 130.07019,211.7524 138.87877,210.17687 145.03842,206.03136 C 147.86033,204.22998 150.82772,202.54856 154.09689,201.7678 C 157.23359,199.95731 162.23503,202.41833 161.25368,206.36107 C 160.58535,210.99149 165.08948,215.50591 162.4264,220.00298 C 161.40375,222.11383 159.44899,223.56936 158.23155,225.51665"
       style="opacity:1;color:black;fill:none;fill-opacity:1;fill-rule:evenodd;stroke:black;stroke-width:3;stroke-linecap:round;stroke-linejoin:round;marker:none;marker-start:none;marker-mid:none;marker-end:none;stroke-miterlimit:4;stroke-dasharray:none;stroke-dashoffset:0;stroke-opacity:1;visibility:visible;display:inline;overflow:visible"
       id="path3614" />
    <path
       d="M 159.62654,208.77678 C 155.87511,207.64242 154.06606,208.46422 151.97133,211.73665 C 152.73334,208.74867 153.07475,205.80038 143.48454,207.58108"
       style="opacity:1;color:black;fill:none;fill-opacity:1;fill-rule:evenodd;stroke:black;stroke-width:3;stroke-linecap:round;stroke-linejoin:round;marker:none;marker-start:none;marker-mid:none;marker-end:none;stroke-miterlimit:4;stroke-dasharray:none;stroke-dashoffset:0;stroke-opacity:1;visibility:visible;display:inline;overflow:visible"
       id="path3616" />
    <path
       d="M 168.19576,207.38179 C 168.32861,207.04965 168.46147,206.71751 168.59433,206.38537 C 169.09464,205.13458 170.50211,205.78752 171.98216,205.78752 C 172.18144,205.78752 172.38072,205.78752 172.58001,205.78752"
       style="opacity:1;color:black;fill:none;fill-opacity:1;fill-rule:evenodd;stroke:black;stroke-width:3;stroke-linecap:round;stroke-linejoin:round;marker:none;marker-start:none;marker-mid:none;marker-end:none;stroke-miterlimit:4;stroke-dasharray:none;stroke-dashoffset:0;stroke-opacity:1;visibility:visible;display:inline;overflow:visible"
       id="path3684" />
    <path
       d="M 238.14447,221.73025 C 238.14447,221.73025 238.14447,221.73025 238.14447,221.73025 z "
       style="opacity:1;color:black;fill:none;fill-opacity:1;fill-rule:evenodd;stroke:#4d4d4d;stroke-width:3;stroke-linecap:round;stroke-linejoin:round;marker:none;marker-start:none;marker-mid:none;marker-end:none;stroke-miterlimit:4;stroke-dasharray:none;stroke-dashoffset:0;stroke-opacity:1;visibility:visible;display:inline;overflow:visible"
       id="path3686" />
    <path
       d="M 243.32585,217.54528 C 244.17134,217.54528 242.13015,218.74098 241.5323,219.33884"
       style="opacity:1;color:black;fill:none;fill-opacity:1;fill-rule:evenodd;stroke:#4d4d4d;stroke-width:3;stroke-linecap:round;stroke-linejoin:round;marker:none;marker-start:none;marker-mid:none;marker-end:none;stroke-miterlimit:4;stroke-dasharray:none;stroke-dashoffset:0;stroke-opacity:1;visibility:visible;display:inline;overflow:visible"
       id="path3688" />
    <path
       d="M 261.26142,204.39253 C 261.87386,204.39253 260.33143,205.18967 259.86643,205.58824"
       style="opacity:1;color:black;fill:none;fill-opacity:1;fill-rule:evenodd;stroke:#4d4d4d;stroke-width:3;stroke-linecap:round;stroke-linejoin:round;marker:none;marker-start:none;marker-mid:none;marker-end:none;stroke-miterlimit:4;stroke-dasharray:none;stroke-dashoffset:0;stroke-opacity:1;visibility:visible;display:inline;overflow:visible"
       id="path3690" />
    <path
       d="M 264.0514,201.40327 C 264.93384,201.40327 265.04782,199.45166 265.04782,198.41401 C 265.04782,198.08187 265.04782,197.74973 265.04782,197.41759"
       style="opacity:1;color:black;fill:none;fill-opacity:1;fill-rule:evenodd;stroke:#4d4d4d;stroke-width:3;stroke-linecap:round;stroke-linejoin:round;marker:none;marker-start:none;marker-mid:none;marker-end:none;stroke-miterlimit:4;stroke-dasharray:none;stroke-dashoffset:0;stroke-opacity:1;visibility:visible;display:inline;overflow:visible"
       id="path3692" />
    <path
       d="M 60.781642,210.17177 C 60.781642,209.70205 60.914498,209.24178 60.980926,208.77678"
       style="opacity:1;color:black;fill:none;fill-opacity:1;fill-rule:evenodd;stroke:#4d4d4d;stroke-width:2;stroke-linecap:round;stroke-linejoin:round;marker:none;marker-start:none;marker-mid:none;marker-end:none;stroke-miterlimit:4;stroke-dasharray:none;stroke-dashoffset:0;stroke-opacity:1;visibility:visible;display:inline;overflow:visible"
       id="path3694" />
    <path
       d="M 64.966608,199.01186 C 64.966608,197.98646 64.99807,197.15538 65.56446,196.0226 C 65.781731,195.58806 65.795851,195.67551 65.963028,195.42475"
       style="opacity:1;color:black;fill:none;fill-opacity:1;fill-rule:evenodd;stroke:#4d4d4d;stroke-width:2;stroke-linecap:round;stroke-linejoin:round;marker:none;marker-start:none;marker-mid:none;marker-end:none;stroke-miterlimit:4;stroke-dasharray:none;stroke-dashoffset:0;stroke-opacity:1;visibility:visible;display:inline;overflow:visible"
       id="path3696" />
    <path
       d="M 64.368756,189.04766 C 64.368756,189.04766 64.368756,189.04766 64.368756,189.04766 z "
       style="opacity:1;color:black;fill:none;fill-opacity:1;fill-rule:evenodd;stroke:#4d4d4d;stroke-width:2;stroke-linecap:round;stroke-linejoin:round;marker:none;marker-start:none;marker-mid:none;marker-end:none;stroke-miterlimit:4;stroke-dasharray:none;stroke-dashoffset:0;stroke-opacity:1;visibility:visible;display:inline;overflow:visible"
       id="path3698" />
    <path
       d="M 66.361596,145.00588 C 66.408592,144.91189 66.546387,145.11675 67.358017,145.60373"
       style="opacity:1;color:black;fill:none;fill-opacity:1;fill-rule:evenodd;stroke:#4d4d4d;stroke-width:2;stroke-linecap:round;stroke-linejoin:round;marker:none;marker-start:none;marker-mid:none;marker-end:none;stroke-miterlimit:4;stroke-dasharray:none;stroke-dashoffset:0;stroke-opacity:1;visibility:visible;display:inline;overflow:visible"
       id="path3700" />
    <path
       d="M 68.354437,157.36149 C 68.354437,157.36149 68.354437,157.36149 68.354437,157.36149 z "
       style="opacity:1;color:black;fill:none;fill-opacity:1;fill-rule:evenodd;stroke:#4d4d4d;stroke-width:2;stroke-linecap:round;stroke-linejoin:round;marker:none;marker-start:none;marker-mid:none;marker-end:none;stroke-miterlimit:4;stroke-dasharray:none;stroke-dashoffset:0;stroke-opacity:1;visibility:visible;display:inline;overflow:visible"
       id="path3702" />
    <path
       d="M 69.94871,161.34717 C 70.336048,160.57249 70.535332,163.16319 70.147994,163.93786"
       style="opacity:1;color:black;fill:none;fill-opacity:1;fill-rule:evenodd;stroke:#4d4d4d;stroke-width:2;stroke-linecap:round;stroke-linejoin:round;marker:none;marker-start:none;marker-mid:none;marker-end:none;stroke-miterlimit:4;stroke-dasharray:none;stroke-dashoffset:0;stroke-opacity:1;visibility:visible;display:inline;overflow:visible"
       id="path3704" />
    <path
       d="M 70.546562,166.92713 C 71.117997,165.78425 69.497308,167.75068 68.354437,168.32211"
       style="opacity:1;color:black;fill:none;fill-opacity:1;fill-rule:evenodd;stroke:#4d4d4d;stroke-width:2;stroke-linecap:round;stroke-linejoin:round;marker:none;marker-start:none;marker-mid:none;marker-end:none;stroke-miterlimit:4;stroke-dasharray:none;stroke-dashoffset:0;stroke-opacity:1;visibility:visible;display:inline;overflow:visible"
       id="path3706" />
    <path
       d="M 69.94871,178.28632 C 70.245785,177.69217 69.222722,179.41087 68.753005,179.88059"
       style="opacity:1;color:black;fill:none;fill-opacity:1;fill-rule:evenodd;stroke:#4d4d4d;stroke-width:2;stroke-linecap:round;stroke-linejoin:round;marker:none;marker-start:none;marker-mid:none;marker-end:none;stroke-miterlimit:4;stroke-dasharray:none;stroke-dashoffset:0;stroke-opacity:1;visibility:visible;display:inline;overflow:visible"
       id="path3708" />
    <path
       d="M 176.36639,215.35315 C 176.4177,211.78923 177.34786,209.00014 179.27546,206.0654 C 181.47214,202.81536 185.40407,199.29691 189.47801,199.01107 C 192.36187,198.75878 195.38573,199.98407 197.01465,202.43569 C 198.80653,205.00489 199.48373,208.14627 199.97175,211.18776 C 200.00078,213.9485 198.4988,216.41539 197.11342,218.70277 C 195.92638,220.55892 194.60476,222.32874 193.17774,224.00703 C 195.84308,221.45345 197.38987,217.77828 197.51124,214.10272 C 197.81818,212.85277 196.61854,210.99031 195.50853,212.51722 C 194.05808,214.08447 193.46714,216.19092 192.39902,217.99191 C 190.92109,220.20278 187.73106,220.31954 185.58865,219.07251 C 183.46228,218.0166 181.93285,215.44913 182.80435,213.09355 C 183.35398,211.40366 184.88791,210.29075 185.5029,208.62561 C 186.65803,206.08045 187.08649,202.88353 185.53347,200.40685 C 185.19149,202.03606 187.38065,200.22435 186.04943,201.54947 C 179.07077,204.46966 178.27948,210.82062 176.36639,215.35315 z "
       style="opacity:1;color:black;fill:black;fill-opacity:1;fill-rule:evenodd;stroke:black;stroke-width:2;stroke-linecap:round;stroke-linejoin:round;marker:none;marker-start:none;marker-mid:none;marker-end:none;stroke-miterlimit:4;stroke-dasharray:none;stroke-dashoffset:0;stroke-opacity:1;visibility:visible;display:inline;overflow:visible"
       id="path5480" />
  </g>
</svg>
